<svg width="1437" height="598" fill="none" xmlns="http://www.w3.org/2000/svg">
  <g clip-path="url(#a)" fill="#92F6E4">
    <path d="M1275.84 46.506c-2.18.909-.95.354 0 0Z"/>
    <path d="M1445.06 430.699c-4.33-44.156-6.53-83.566-7.09-128.832-.54-44.522.66-89.068 3.79-133.484 1.52-21.641 4.06-43.2 5.49-64.841 1.42-21.7 1.43-44.782-5.66-65.573-3.71-10.885-9.3-20.66-18.57-27.804-9.18-7.06-21.01-9.433-32.34-9.811-21.83-.72-43.79-.2-65.63.378-38.11 1.027-83.76 2.61-103.86 41.346-18.28 35.266-9.8 78.347 8.38 111.96 9.23 17.084 21.17 32.291 35.63 45.195 7.3 6.518 15.19 12.196 23.09 17.97 3.61 2.644 7.19 5.313 10.65 8.158.49.402 2.75 2.468 2.63 2.314 1.61 1.57 3.21 3.164 4.69 4.853a75.652 75.652 0 0 1 4.12 5.124c.05.07.08.141.13.236.42.744.86 1.476 1.27 2.231a53.82 53.82 0 0 1 2.57 5.396c.15.342.28.696.42 1.039-.03 0 .63 1.924.78 2.42a68 68 0 0 1 1.29 5.856c.14.85.27 1.688.39 2.538.04.26.17 1.323.25 1.984.02.342.05.649.05.732 0 1.145.02 2.29-.03 3.435-.09 2.291-.39 4.558-.66 6.836-.06.52-.09.839-.1 1.039-.06.189-.13.449-.24.815-.52 1.936-1.07 3.849-1.73 5.738-.6 1.688-1.29 3.329-2.01 4.97.62-1.487-1.61 2.893-2.18 3.767-1.09 1.688-2.3 3.27-3.52 4.864-.21.272-.34.449-.42.567-.61.684-1.26 1.334-1.9 1.995-3.21 3.318-6.57 6.482-9.68 9.882-7.51 8.158-14.09 17.06-16.62 28.087-2.55 11.051-2.58 22.303.18 33.354 4.5 18.028 14.07 34.935 26.52 48.654 12.09 13.318 26.61 23.695 42.95 31.11 15.58 7.072 34.86 11.96 52.09 9.54a63.51 63.51 0 0 0 11.85-2.822c4.89 3.376 11.13 4.947 16.51 3.612 11.99-2.963 17.66-13.046 16.5-24.84l.02.012Z"/>
  </g>
  <g clip-path="url(#b)">
    <path d="M257.96 562.04c.56-.02 1.11-.05 1.67-.04-.94 0-1.44.02-1.67.04Z" fill="#ECB3F0"/>
    <path d="M282.51 511.47c-11.42-16.82-27.1-31-45.7-39.43-9.71-4.4-19.54-7.3-29.99-9.25-9.12-1.7-18.36-3-27.22-5.81-1.16-.37-2.29-.8-3.45-1.18l-.15-.06c.1.05.2.1.32.17-.11-.06-.22-.11-.33-.17-.73-.29-1.95-.98-.73-.37-1.56-.79-3.11-1.56-4.61-2.5-.12-.07-.39-.24-.68-.43-.49-.43-2.07-1.63-2.09-1.66-.69-.65-1.37-1.32-2.01-2.02-.8-.86-2.54-3.91-.65-.62-.96-1.67-2.03-3.31-3-4.99-.12-.21-.26-.5-.38-.79.09.24.18.51.3.86-.11-.32-.23-.64-.35-.96-.31-.75-.51-1.41-.22-.62-.1-.28-.2-.55-.29-.83-.6-1.85-1.07-3.73-1.49-5.63-.24-1.07-.42-2.15-.66-3.21-.04-.17-.07-.31-.1-.43 0-.09-.01-.17-.02-.27-1.43-17.57 1.04-35.17-.35-52.73-.83-10.57-3-20.51-7.32-30.19-3.9-8.74-10.67-16.81-17.58-23.38-7.23-6.86-15.63-12.61-24.39-17.32-4.01-2.15-8.12-4.1-12.29-5.9-2.7-1.17-5.42-2.3-8.14-3.43-.7-.29-1.39-.58-2.09-.87-.13-.06-2.35-1.02-2.64-1.15-4.02-1.77-8-3.66-11.77-5.95-.82-.5-1.6-1.05-2.42-1.54-.33-.2-.57-.34-.78-.46-.08-.07-.18-.16-.34-.29-.9-.74-1.77-1.52-2.6-2.33-.26-.26-1.98-2.15-1.89-1.94-4.93-6.6-4.42-13.41-3.51-22.38 1-9.8 3.06-20.63 1.75-31.48-1.25-10.33-4.83-20.37-10.92-28.88-12.94-18.03-32.05-28.61-53.67-32.63-5.2-.97-10.47-1.62-15.73-2.09-3.62-.32-7.45.23-11.18.91-1.96-.88-4.18-1.33-6.63-1.22-8.32.37-17.79 7.44-16.8 16.8 5.1 48.58-1.14 97.19-4.81 145.63-3.69 48.78-1.93 96.97 4.43 145.46 3.26 24.9 7.21 49.69 11.37 74.46 2.41 14.35 4.17 30.7 20.66 35.58 5.58 1.65 11.69 1.55 17.47 1.82 6.32.3 12.64.6 18.96.89 49.57 2.34 99.15 4.67 148.72 7.01 24.95 1.18 49.9 2.4 74.86 3.52 12.7.57 25.34 1.9 37.21-3.67 9.8-4.6 16.75-14.6 19.3-24.93 4.9-19.85-2.22-40.67-13.38-57.1v-.02Z" fill="#9998EF"/>
    <path d="M260.62 561.58c.08-.08.16-.17.24-.25v-.03c.04-.12.07-.23.11-.38 0-.02.02-.04.03-.05.04-.12.09-.25.14-.4-.35.04-.6.68-.7 1.2-.07.03-.14.06-.2.1.06-.02.13-.04.19-.06v.03l.1-.06a.95.95 0 0 0 .17-.1c.03 0 .05-.01.08-.02 0-.01 0-.02.01-.04-.06.02-.13.05-.19.08l.02-.02ZM125.87 370.2c.01.19.02.35.03.5l-.03-.5ZM175.99 455.75c-.31-.16-.56-.28-.74-.38.24.12.49.25.73.37h.01v.01ZM161.81 442.37c-.11-.32-.2-.56-.26-.73.07.21.15.42.22.62.01.04.03.07.04.11Z" fill="#ECB3F0"/>
  </g>
  <g clip-path="url(#c)" fill="#FDFEB0">
    <path d="M821.426 311.38c.307-.572.614-1.143.949-1.687a53.38 53.38 0 0 0-1.005 1.741l.056-.054Z"/>
    <path d="M894.762 153.5C805.284 1.741 593.682-27.039 434.806 21.789 357.7 45.482 281.543 91.67 242.39 162.776c-37.171 67.488-43.65 152.086-6.898 221.042 32.758 61.477 101.849 99.042 172.029 102.633a319.413 319.413 0 0 0 28.123 4.243c36.724 3.863 75.989-.816 110.423-13.873 39.321-14.933 74.118-37.021 110.786-56.987 7.4-4.026 14.913-7.916 22.565-11.507 1.843-.843 3.686-1.659 5.557-2.502 4.412-1.469 8.741-3.156 13.182-4.489 4.524-1.333 9.076-2.502 13.712-3.454 1.173-.245 2.373-.436 3.574-.653 3.798-.109 7.54-.49 11.367-.463 2.736 0 5.501.381 8.238.354h.168c.083 0 .111.027.195.054 23.682 6.148 48.76 12.948 73.336 13.955 27.648 1.115 53.089-8.487 74.202-25.298 33.596-26.712 46.554-73.418 46.051-114.139-.531-41.401-13.098-82.367-34.21-118.165l-.028-.027Z"/>
  </g>
  <defs>
    <clipPath id="a">
      <path fill="#fff" transform="translate(1211)" d="M0 0h237v456H0z"/>
    </clipPath>
    <clipPath id="b">
      <path fill="#fff" transform="translate(-59 166)" d="M0 0h356.46v431.74H0z"/>
    </clipPath>
    <clipPath id="c">
      <path fill="#fff" transform="translate(211)" d="M0 0h718v492H0z"/>
    </clipPath>
  </defs>
</svg>
