<svg width="221" height="117" fill="none" xmlns="http://www.w3.org/2000/svg"><g clip-path="url(#a)"><path d="M175.711 47.762c-.808-3.176-2.369-7.613-5.67-11.758-4.356-5.462-11.922-10.89-24.833-11.532 0 0-10.273-24.472-34.714-24.472-24.44 0-34.713 24.472-34.713 24.472-12.922.642-20.478 6.07-24.834 11.532-3.3 4.145-4.86 8.582-5.67 11.758a254.284 254.284 0 0 1-9.261 10.608H184.95a271.343 271.343 0 0 1-9.262-10.608M117.803 36.77c-2.178 6.802-6.455 11.014-7.601 12.062-1.145-1.059-5.467-5.305-7.634-12.175-6.253-2.364-10.115-6.948-11.08-8.176.976-1.227 4.838-5.81 11.08-8.176 2.167-6.87 6.489-11.115 7.634-12.163 1.146 1.059 5.423 5.26 7.601 12.062 6.411 2.331 10.374 7.027 11.362 8.277-.988 1.24-4.951 5.947-11.362 8.278M7.017 76.626c3.132-1.498 4.344-3.57 4.715-4.29.674.09 4.21.551 7.6-1.07 3.627-1.735 4.278-4.505 4.38-4.956a92.44 92.44 0 0 0 4.939-3.052c.404-.27.808-.54 1.19-.81v34.404H0v-18.74c1.089.012 4.053-.056 7.017-1.486ZM213.983 76.626c-3.132-1.498-4.345-3.57-4.715-4.29-.674.09-4.21.551-7.601-1.07-3.626-1.735-4.277-4.505-4.378-4.956a92.562 92.562 0 0 1-4.94-3.052c-.404-.27-.808-.54-1.19-.81v34.404h29.852v-18.74c-1.089.012-4.053-.056-7.028-1.486Z" fill="#E9E66B"/><path d="m36.375 95.692-.337-30.204 6.781-.113.348 30.205-6.792.112ZM75.556 95.602c-.134-1.644-.482-3.074-1.032-4.302-.55-1.227-1.235-2.286-2.055-3.164-.82-.879-1.74-1.61-2.773-2.174a16.385 16.385 0 0 0-3.155-1.34 18.46 18.46 0 0 0-3.222-.676 23.356 23.356 0 0 0-2.975-.157l-2.01.033.135 12.073-6.78.113-.349-30.193 6.781-.113.135 11.645 1.392-.023a17.11 17.11 0 0 0 2.941-.315 15.762 15.762 0 0 0 3.032-.89c.999-.394 1.965-.9 2.885-1.52.92-.62 1.74-1.363 2.459-2.241a12.058 12.058 0 0 0 1.796-3.03c.472-1.137.764-2.444.876-3.896l6.915-.113c-.1 1.6-.348 3.04-.74 4.347a16.725 16.725 0 0 1-1.483 3.491 14.73 14.73 0 0 1-1.987 2.703 16.091 16.091 0 0 1-2.267 2.005 15.404 15.404 0 0 1-2.313 1.396c-.775.372-1.493.665-2.156.856.854.147 1.752.383 2.672.71.92.326 1.841.766 2.75 1.317.91.552 1.775 1.228 2.617 2.039.83.81 1.583 1.757 2.256 2.838.674 1.092 1.235 2.331 1.684 3.728.46 1.396.753 2.973.899 4.73l-6.916.112-.011.011ZM88.939 95.929l-.348-30.193 6.792-.113.337 30.193-6.781.113ZM120.082 65.004c2.459-.045 4.749.169 6.882.642 2.122.473 4.075 1.092 5.849 1.847l.079 7.387a20.93 20.93 0 0 0-2.369-1.328c-.876-.428-1.83-.8-2.852-1.115a23.628 23.628 0 0 0-3.3-.755 20.636 20.636 0 0 0-3.694-.248c-1.605.023-3.009.192-4.199.485-1.19.292-2.211.687-3.053 1.17-.854.485-1.55 1.037-2.089 1.679a8.161 8.161 0 0 0-1.279 2.004 8.932 8.932 0 0 0-.64 2.163 12.685 12.685 0 0 0-.158 2.14c0 .596.068 1.25.18 1.948.112.698.314 1.396.606 2.095a8.006 8.006 0 0 0 1.224 2.004c.516.63 1.19 1.194 2.021 1.678s1.83.867 2.986 1.149c1.157.281 2.537.405 4.143.383a21.328 21.328 0 0 0 2.099-.124 15.105 15.105 0 0 0 1.639-.27c.494-.113.955-.237 1.393-.395.426-.157.875-.315 1.336-.484l-.045-3.649-7.612.124-.079-6.61 14.393-.237.18 15.429c-.898.383-1.909.732-3.02 1.047a39.639 39.639 0 0 1-3.447.822c-1.19.225-2.38.417-3.57.552-1.19.135-2.324.214-3.379.237a28.064 28.064 0 0 1-4.738-.316 19.267 19.267 0 0 1-4.244-1.148 15.39 15.39 0 0 1-3.615-2.039 12.383 12.383 0 0 1-2.795-2.984c-.775-1.16-1.381-2.5-1.819-4.01-.438-1.509-.662-3.21-.685-5.101-.022-1.88.18-3.581.595-5.113.427-1.532 1.022-2.883 1.796-4.077a13.116 13.116 0 0 1 2.807-3.086 16.212 16.212 0 0 1 3.615-2.162 19.49 19.49 0 0 1 4.233-1.284 26.22 26.22 0 0 1 4.648-.473M162.991 96.042l-.034-2.974a19.416 19.416 0 0 1-2.773 1.566 23.613 23.613 0 0 1-6.399 1.914c-1.134.17-2.29.27-3.447.282a16.749 16.749 0 0 1-3.929-.394c-1.269-.293-2.391-.766-3.379-1.442-.988-.675-1.774-1.565-2.38-2.669-.607-1.103-.91-2.455-.932-4.077-.023-2.038.426-3.739 1.336-5.113.909-1.374 2.313-2.5 4.21-3.4 1.897-.89 4.288-1.6 7.196-2.118 2.908-.518 6.343-.935 10.318-1.273v-.641c0-.496-.124-.992-.348-1.476-.225-.484-.629-.912-1.213-1.284-.584-.36-1.381-.653-2.391-.878-1.011-.214-2.29-.315-3.851-.293a30.094 30.094 0 0 0-3.649.293c-1.201.18-2.357.405-3.469.687a30.731 30.731 0 0 0-3.166.98 36.35 36.35 0 0 0-2.717 1.137l-.078-7.252a38.276 38.276 0 0 1 2.863-.811 44.744 44.744 0 0 1 3.3-.699 50.474 50.474 0 0 1 3.469-.495 39.935 39.935 0 0 1 3.368-.225c2.111-.034 4.053.146 5.838.529 1.785.383 3.324 1.014 4.626 1.87a9.397 9.397 0 0 1 3.054 3.288c.741 1.34 1.122 2.928 1.145 4.797l.224 20.024-6.792.113v.034Zm-.157-13.785c-2.605.158-4.828.36-6.646.62-1.819.247-3.335.529-4.536.844-1.201.315-2.144.642-2.829.991-.685.35-1.202.698-1.538 1.059-.337.36-.539.71-.618 1.07-.078.349-.112.675-.112.968 0 .35.09.698.247 1.014.157.326.438.62.842.856.393.236.932.428 1.594.563.663.135 1.493.191 2.492.18a17.249 17.249 0 0 0 3.256-.36 19.05 19.05 0 0 0 3.009-.89c.943-.372 1.83-.811 2.661-1.318a15.682 15.682 0 0 0 2.223-1.61l-.045-3.976v-.011ZM178.181 96.346l-.337-30.205 6.781-.112.348 30.204-6.792.113Z" fill="#368AC3"/><path d="M47.837 101.977c0 1.047 0 1.869-.01 2.466 0 .608-.012 1.16-.012 1.655v2.827c0 .766-.135 1.419-.393 1.982a3.778 3.778 0 0 1-1.055 1.374 5.128 5.128 0 0 1-1.65.901c-.596.192-1.28.282-2.078.282-.875 0-1.616-.113-2.211-.327a4.974 4.974 0 0 1-1.55-.878 3.845 3.845 0 0 1-1.055-1.408c-.236-.552-.36-1.205-.36-1.971v-2.827c0-.551 0-1.103-.01-1.666 0-.563-.012-1.363-.012-2.41h2.762c0 .473-.011 1.07-.022 1.768v5c0 .811.224 1.43.662 1.847.438.417 1.033.631 1.785.631.797 0 1.404-.203 1.819-.608.415-.406.617-1.025.617-1.87v-2.601c0-.901 0-1.701-.01-2.411 0-.709-.012-1.295-.012-1.756h2.795ZM58.739 113.193h-2.56v-1.272c0-.676.011-1.216.011-1.611v-1.182c0-.507 0-.901-.01-1.16 0-.518-.102-.89-.27-1.115-.158-.236-.45-.349-.876-.349-.28 0-.606.067-.977.214-.382.146-.73.315-1.066.507V109.646c0 .608 0 1.329.01 2.162.012.845.012 1.307.012 1.385h-2.56c0-.123 0-.518.012-1.171v-5.045c0-.743 0-1.52-.012-2.32h2.515v.811a9.604 9.604 0 0 1 1.673-.732c.595-.192 1.111-.293 1.56-.293.764 0 1.381.236 1.83.721.45.473.674 1.126.674 1.926 0 .675 0 1.238-.011 1.689 0 .45-.011.833-.011 1.137 0 .518 0 1.16.01 1.915.012.754.012 1.216.012 1.385M68.203 108.745v4.448c-.09.012-.45.034-1.089.079-.64.045-1.302.068-2.02.068-.472 0-1-.034-1.595-.113s-1.1-.202-1.493-.383c-.517-.225-.91-.518-1.202-.878a1.975 1.975 0 0 1-.437-1.284c0-.541.157-.991.46-1.374.314-.383.797-.687 1.448-.935.438-.169.977-.292 1.628-.394a36.61 36.61 0 0 1 1.752-.203c-.012-.304-.09-.551-.236-.743-.146-.191-.382-.338-.719-.45a4.49 4.49 0 0 0-.74-.158 8.012 8.012 0 0 0-.966-.045c-.337 0-.629 0-.865.011a67.29 67.29 0 0 1-.774.034l.224-1.869c.112 0 .292-.012.539-.023.247 0 .595-.011 1.033-.011.943 0 1.718.079 2.346.236.629.158 1.157.428 1.583.8.393.338.685.754.865 1.239.18.484.27 1.126.27 1.925m-2.415 1.543v-1.374c-.157 0-.449.034-.853.091a4.355 4.355 0 0 0-1.1.292c-.225.09-.427.226-.617.417a.952.952 0 0 0-.281.698c0 .316.078.563.247.744.168.18.382.326.64.427.19.068.404.113.64.147.235.034.494.056.774.056h.55v-1.509M80.653 106.549c-.46.135-.965.315-1.538.529-.572.214-1.302.53-2.211.935v1.892c0 .597 0 1.25.01 1.982.012.732.012 1.171.012 1.306h-2.56c0-.168 0-.585.012-1.261 0-.664.01-1.565.01-2.691v-2.028c0-.81-.01-1.678-.01-2.579h2.503v1.228a16.31 16.31 0 0 1 1.707-.924c.606-.292 1.078-.484 1.414-.585l.651 2.173v.023ZM88.726 108.745v4.448c-.09.012-.45.034-1.09.079-.64.045-1.302.068-2.02.068-.472 0-1-.034-1.594-.113-.596-.079-1.1-.202-1.494-.383-.516-.225-.909-.518-1.2-.878a1.975 1.975 0 0 1-.439-1.284c0-.541.157-.991.46-1.374.315-.383.798-.687 1.449-.935.438-.169.977-.292 1.628-.394.65-.09 1.235-.157 1.751-.203-.011-.304-.09-.551-.236-.743-.146-.191-.381-.338-.718-.45a4.49 4.49 0 0 0-.741-.158 8.014 8.014 0 0 0-.966-.045c-.337 0-.628 0-.864.011-.236.012-.494.023-.775.034l.225-1.869c.112 0 .292-.012.539-.023.247 0 .595-.011 1.032-.011.944 0 1.718.079 2.347.236.629.158 1.156.428 1.583.8.393.338.685.754.864 1.239.18.484.27 1.126.27 1.925m-2.414 1.543v-1.374c-.157 0-.449.034-.853.091a4.356 4.356 0 0 0-1.1.292c-.225.09-.427.226-.618.417a.952.952 0 0 0-.28.698c0 .316.078.563.246.744.169.18.382.326.64.427.191.068.404.113.64.147.236.034.494.056.775.056h.55v-1.509M98.044 113.16h-7.309L90.14 112c.472-.608 1.067-1.385 1.785-2.32.719-.935 1.516-1.971 2.403-3.131l-.674-.011h-3.222v-1.859h6.848l.652 1.082a194.742 194.742 0 0 0-2.627 3.378l-1.617 2.129.718.011h3.66v1.881h-.022ZM108.238 108.925a4.81 4.81 0 0 1-.371 1.858 4.335 4.335 0 0 1-1.089 1.543 3.906 3.906 0 0 1-1.381.822 5.073 5.073 0 0 1-1.695.271c-.617 0-1.156-.09-1.684-.271a3.903 3.903 0 0 1-1.403-.822 4.07 4.07 0 0 1-1.078-1.52 4.727 4.727 0 0 1-.382-1.903c0-.676.112-1.262.326-1.802a4.087 4.087 0 0 1 1.01-1.464c.416-.406.887-.71 1.437-.912a5.041 5.041 0 0 1 1.763-.316c.629 0 1.212.09 1.74.282a4.232 4.232 0 0 1 2.459 2.376c.224.552.348 1.171.348 1.847m-1.482-6.712-4.536 1.655-.617-1.385 4.423-1.959.73 1.678v.011Zm-1.067 6.746c0-.394-.056-.789-.179-1.183a2.275 2.275 0 0 0-.584-.98 1.616 1.616 0 0 0-.561-.36 1.932 1.932 0 0 0-.674-.124c-.281 0-.517.045-.719.135a1.85 1.85 0 0 0-.583.428c-.225.226-.393.53-.517.901a3.544 3.544 0 0 0-.179 1.126c0 .44.056.834.179 1.205.124.361.326.687.606.946.158.158.337.271.551.35.213.078.437.112.673.112.236 0 .483-.045.707-.135.225-.09.416-.214.584-.383.225-.248.404-.552.528-.912.123-.36.18-.743.18-1.126M117.837 113.193h-2.56v-1.272c0-.676.011-1.216.011-1.611v-1.182c0-.507 0-.901-.011-1.16 0-.518-.101-.89-.269-1.115-.158-.236-.45-.349-.876-.349-.281 0-.606.067-.977.214-.382.146-.73.315-1.066.507V109.646c0 .608 0 1.329.011 2.162.011.845.011 1.307.011 1.385h-2.56c0-.123 0-.518.012-1.171v-5.045c0-.743 0-1.52-.012-2.32h2.515v.811a9.613 9.613 0 0 1 1.673-.732c.595-.192 1.111-.293 1.56-.293.764 0 1.381.236 1.83.721.45.473.674 1.126.674 1.926 0 .675 0 1.238-.011 1.689 0 .45-.011.833-.011 1.137 0 .518 0 1.16.011 1.915.011.754.011 1.216.011 1.385M132.409 108.723c0 .867-.202 1.587-.584 2.184a4.328 4.328 0 0 1-1.583 1.431 6.017 6.017 0 0 1-1.773.619 9.307 9.307 0 0 1-1.875.191l.022 3.841h-2.56v-2.343c0-1.306.012-2.736.012-4.302v-2.646c0-1.014 0-2.039-.012-3.086.202 0 .449 0 .73-.011h.64c1.089 0 1.987.045 2.683.146a7.469 7.469 0 0 1 2.044.608c.729.338 1.279.8 1.672 1.385.393.586.584 1.25.584 1.983Zm-2.571.146c0-.417-.09-.777-.28-1.115a2.075 2.075 0 0 0-.753-.777 3.38 3.38 0 0 0-.943-.36 5.59 5.59 0 0 0-1.1-.102h-.247v4.955c.371 0 .741-.033 1.134-.112.393-.079.696-.18.943-.304.415-.226.73-.507.954-.845.214-.349.326-.788.326-1.34M141.267 108.745v4.448c-.09.012-.449.034-1.089.079-.64.045-1.302.068-2.021.068-.471 0-.999-.034-1.594-.113-.595-.079-1.1-.202-1.493-.383-.517-.225-.909-.518-1.201-.878a1.975 1.975 0 0 1-.438-1.284c0-.541.157-.991.46-1.374.314-.383.797-.687 1.448-.935.438-.169.977-.292 1.628-.394.651-.09 1.224-.157 1.752-.203-.012-.304-.09-.551-.236-.743-.146-.191-.382-.338-.719-.45a4.468 4.468 0 0 0-.741-.158 8.005 8.005 0 0 0-.965-.045c-.337 0-.629 0-.865.011-.235.012-.494.023-.774.034l.224-1.869c.113 0 .292-.012.539-.023.247 0 .584-.011 1.033-.011.943 0 1.718.079 2.346.236.629.158 1.157.428 1.583.8.393.338.685.754.865 1.239.18.484.269 1.126.269 1.925m-2.413 1.543v-1.374c-.158 0-.45.034-.854.091a4.363 4.363 0 0 0-1.1.292c-.224.09-.427.226-.617.417a.952.952 0 0 0-.281.698c0 .316.079.563.247.744.168.18.382.326.64.427.191.068.404.113.64.147.236.034.494.056.774.056H138.865v-1.509M149.844 106.549c-.46.135-.965.315-1.538.529-.572.214-1.302.53-2.211.935v1.892c0 .597 0 1.25.011 1.982 0 .732.011 1.171.011 1.306h-2.56c0-.168 0-.585.012-1.261 0-.664.011-1.565.011-2.691v-2.028c0-.81 0-1.678-.011-2.579h2.503v1.228a16.28 16.28 0 0 1 1.707-.924c.606-.292 1.077-.484 1.414-.585l.651 2.173v.023ZM157.916 108.745v4.448c-.089.012-.449.034-1.089.079-.639.045-1.302.068-2.02.068-.472 0-1-.034-1.595-.113s-1.1-.202-1.493-.383c-.516-.225-.909-.518-1.201-.878a1.975 1.975 0 0 1-.438-1.284c0-.541.157-.991.46-1.374.315-.383.798-.687 1.449-.935.438-.169.976-.292 1.628-.394.651-.09 1.223-.157 1.751-.203-.011-.304-.09-.551-.236-.743-.146-.191-.382-.338-.718-.45a4.512 4.512 0 0 0-.741-.158 8.022 8.022 0 0 0-.966-.045c-.337 0-.628 0-.864.011-.236.012-.494.023-.775.034l.225-1.869c.112 0 .292-.012.539-.023.247 0 .583-.011 1.032-.011.943 0 1.718.079 2.347.236.629.158 1.156.428 1.583.8.393.338.685.754.864 1.239.18.484.27 1.126.27 1.925m-2.414 1.543v-1.374c-.157 0-.449.034-.853.091a4.36 4.36 0 0 0-1.101.292c-.224.09-.426.226-.617.417a.952.952 0 0 0-.281.698c0 .316.079.563.247.744.169.18.382.326.64.427.191.068.404.113.64.147.236.034.494.056.775.056h.55v-1.509M170.008 110.614c0 .462-.124.856-.382 1.194-.258.338-.573.62-.965.834-.405.225-.91.383-1.505.495-.595.102-1.201.158-1.807.158-.405 0-.775 0-1.101-.011-.325-.012-.55-.023-.662-.023l-.202-1.836c.123 0 .337.012.64.034.292.011.617.023.965.023.18 0 .393 0 .629-.034.236-.023.449-.056.662-.124.304-.079.506-.191.607-.315a.672.672 0 0 0 .146-.44.512.512 0 0 0-.169-.394 2.147 2.147 0 0 0-.516-.349 8.78 8.78 0 0 0-.73-.371 6.87 6.87 0 0 1-.808-.417c-.382-.237-.674-.507-.854-.834a2.035 2.035 0 0 1-.28-1.069c0-.428.123-.811.359-1.149.236-.349.606-.631 1.089-.879a5 5 0 0 1 1.415-.405 12.665 12.665 0 0 1 1.526-.135h1c.269 0 .449.011.527.011l.214 1.847c-.079 0-.236 0-.472-.022a16.474 16.474 0 0 0-.864-.023 4.294 4.294 0 0 0-1.247.169c-.213.068-.37.169-.471.281a.553.553 0 0 0-.157.372c0 .158.067.304.191.417.134.112.303.225.516.338.202.112.46.236.775.383.303.146.55.27.729.371.382.237.674.507.876.811.202.304.292.665.292 1.081M179.393 108.914H173.6c0 .428.124.822.36 1.194.235.36.595.664 1.077.889.337.147.696.259 1.078.327.371.068.786.09 1.235.09.359 0 .662 0 .932-.011.258-.011.449-.023.572-.023l-.258 1.836c-.112 0-.314.023-.584.034-.28.011-.595.022-.943.022-.965 0-1.83-.101-2.582-.326-.752-.214-1.392-.541-1.92-.98a4.135 4.135 0 0 1-1.077-1.363 3.946 3.946 0 0 1-.404-1.79c0-.654.101-1.228.303-1.735.202-.507.527-.991.976-1.453a3.818 3.818 0 0 1 1.381-.889 4.832 4.832 0 0 1 3.279-.057c.471.169.875.428 1.212.766.404.406.696.89.876 1.453.179.563.269 1.239.269 2.016m-2.391-1.126c-.045-.552-.213-.98-.505-1.307-.292-.326-.685-.484-1.179-.484s-.887.158-1.213.484c-.314.327-.527.755-.617 1.307h3.514ZM187.364 106.549c-.46.135-.965.315-1.538.529-.572.214-1.302.53-2.211.935v1.892c0 .597 0 1.25.011 1.982 0 .732.011 1.171.011 1.306h-2.56c0-.168 0-.585.012-1.261 0-.664.011-1.565.011-2.691v-2.028c0-.81 0-1.678-.011-2.579h2.503v1.228a16.28 16.28 0 0 1 1.707-.924c.606-.292 1.077-.484 1.414-.585l.651 2.173v.023Z" fill="#1D1D1B"/></g><defs><clipPath id="a"><path fill="#fff" d="M0 0h221v117H0z"/></clipPath></defs></svg>